<svg width="14" height="10" viewBox="0 0 14 10" fill="none" xmlns="http://www.w3.org/2000/svg">
<path fill-rule="evenodd" clip-rule="evenodd" d="M8.29697e-05 4.9999C8.29697e-05 4.86729 0.0527611 4.74011 0.146529 4.64635C0.240297 4.55258 0.367475 4.4999 0.500083 4.4999H12.2931L9.14608 1.3539C9.0996 1.30741 9.06272 1.25222 9.03756 1.19148C9.0124 1.13074 8.99945 1.06564 8.99945 0.999899C8.99945 0.934155 9.0124 0.869055 9.03756 0.808316C9.06272 0.747576 9.0996 0.692387 9.14608 0.645899C9.19257 0.599411 9.24776 0.562535 9.3085 0.537376C9.36924 0.512217 9.43434 0.499268 9.50008 0.499268C9.56583 0.499268 9.63093 0.512217 9.69167 0.537376C9.75241 0.562535 9.8076 0.599411 9.85408 0.645899L13.8541 4.6459C13.9006 4.69234 13.9376 4.74752 13.9628 4.80827C13.988 4.86901 14.001 4.93413 14.001 4.9999C14.001 5.06567 13.988 5.13079 13.9628 5.19153C13.9376 5.25228 13.9006 5.30745 13.8541 5.3539L9.85408 9.3539C9.8076 9.40039 9.75241 9.43726 9.69167 9.46242C9.63093 9.48758 9.56583 9.50053 9.50008 9.50053C9.43434 9.50053 9.36924 9.48758 9.3085 9.46242C9.24776 9.43726 9.19257 9.40039 9.14608 9.3539C9.0996 9.30741 9.06272 9.25222 9.03756 9.19148C9.0124 9.13074 8.99945 9.06564 8.99945 8.9999C8.99945 8.93416 9.0124 8.86905 9.03756 8.80832C9.06272 8.74758 9.0996 8.69239 9.14608 8.6459L12.2931 5.4999H0.500083C0.367475 5.4999 0.240297 5.44722 0.146529 5.35345C0.0527611 5.25968 8.29697e-05 5.13251 8.29697e-05 4.9999Z" fill="black"/>
</svg>
