<svg width="54" height="54" viewBox="0 0 54 54" fill="none" xmlns="http://www.w3.org/2000/svg">
<path fill-rule="evenodd" clip-rule="evenodd" d="M16.0404 0.576004C18.8751 0.445504 19.779 0.416504 27 0.416504C34.221 0.416504 35.1248 0.447921 37.9571 0.576004C40.7895 0.704087 42.7228 1.156 44.4145 1.81092C46.1859 2.48034 47.793 3.52675 49.1221 4.88009C50.4755 6.20684 51.5195 7.8115 52.1865 9.58534C52.8438 11.277 53.2933 13.2103 53.4238 16.0378C53.5543 18.8774 53.5833 19.7813 53.5833 26.9998C53.5833 34.2208 53.5519 35.1247 53.4238 37.9594C53.2957 40.7869 52.8438 42.7202 52.1865 44.4119C51.5194 46.186 50.4737 47.7933 49.1221 49.122C47.793 50.4753 46.1859 51.5193 44.4145 52.1863C42.7228 52.8437 40.7895 53.2932 37.962 53.4237C35.1248 53.5542 34.221 53.5832 27 53.5832C19.779 53.5832 18.8751 53.5518 16.0404 53.4237C13.2129 53.2956 11.2795 52.8437 9.58788 52.1863C7.81385 51.5192 6.20652 50.4735 4.87779 49.122C3.52538 47.7945 2.4788 46.1879 1.81104 44.4143C1.15613 42.7227 0.706626 40.7893 0.576126 37.9618C0.445626 35.1222 0.416626 34.2184 0.416626 26.9998C0.416626 19.7788 0.448043 18.875 0.576126 16.0427C0.704209 13.2103 1.15613 11.277 1.81104 9.58534C2.47979 7.8117 3.52716 6.20518 4.88021 4.87767C6.20706 3.52555 7.81277 2.47899 9.58546 1.81092C11.2771 1.156 13.2105 0.706504 16.038 0.576004H16.0404ZM37.742 5.361C34.9387 5.23292 34.0977 5.20634 27 5.20634C19.9022 5.20634 19.0612 5.23292 16.2579 5.361C13.6648 5.47942 12.2583 5.912 11.3206 6.27692C10.0809 6.76025 9.19396 7.333 8.26354 8.26342C7.38157 9.12146 6.70281 10.166 6.27704 11.3205C5.91213 12.2582 5.47954 13.6647 5.36113 16.2578C5.23304 19.0611 5.20646 19.9021 5.20646 26.9998C5.20646 34.0976 5.23304 34.9386 5.36113 37.7419C5.47954 40.335 5.91213 41.7415 6.27704 42.6792C6.70238 43.8319 7.38146 44.8783 8.26354 45.7363C9.12146 46.6183 10.1679 47.2974 11.3206 47.7228C12.2583 48.0877 13.6648 48.5203 16.2579 48.6387C19.0612 48.7668 19.8998 48.7933 27 48.7933C34.1001 48.7933 34.9387 48.7668 37.742 48.6387C40.3351 48.5203 41.7416 48.0877 42.6793 47.7228C43.919 47.2394 44.806 46.6667 45.7364 45.7363C46.6185 44.8783 47.2975 43.8319 47.7229 42.6792C48.0878 41.7415 48.5204 40.335 48.6388 37.7419C48.7669 34.9386 48.7935 34.0976 48.7935 26.9998C48.7935 19.9021 48.7669 19.0611 48.6388 16.2578C48.5204 13.6647 48.0878 12.2582 47.7229 11.3205C47.2395 10.0808 46.6668 9.19384 45.7364 8.26342C44.8783 7.38151 43.8337 6.70276 42.6793 6.27692C41.7416 5.912 40.3351 5.47942 37.742 5.361ZM23.6045 35.1948C25.5008 35.9841 27.6123 36.0906 29.5784 35.4962C31.5444 34.9017 33.2432 33.6431 34.3843 31.9353C35.5255 30.2275 36.0384 28.1764 35.8354 26.1325C35.6324 24.0886 34.7261 22.1785 33.2712 20.7286C32.3438 19.8017 31.2224 19.092 29.9878 18.6506C28.7531 18.2092 27.436 18.047 26.1312 18.1757C24.8263 18.3044 23.5662 18.7208 22.4417 19.3949C21.3171 20.069 20.3559 20.9841 19.6274 22.0743C18.899 23.1645 18.4212 24.4026 18.2287 25.6996C18.0362 26.9965 18.1336 28.32 18.5139 29.5748C18.8943 30.8296 19.5481 31.9845 20.4284 32.9562C21.3086 33.928 22.3934 34.6925 23.6045 35.1948ZM17.3381 17.338C18.6069 16.0692 20.1132 15.0627 21.771 14.376C23.4288 13.6894 25.2056 13.3359 27 13.3359C28.7943 13.3359 30.5711 13.6894 32.2289 14.376C33.8867 15.0627 35.393 16.0692 36.6618 17.338C37.9306 18.6068 38.9371 20.1131 39.6237 21.7709C40.3104 23.4287 40.6639 25.2055 40.6639 26.9998C40.6639 28.7942 40.3104 30.571 39.6237 32.2288C38.9371 33.8866 37.9306 35.3929 36.6618 36.6617C34.0993 39.2241 30.6238 40.6637 27 40.6637C23.3761 40.6637 19.9006 39.2241 17.3381 36.6617C14.7756 34.0992 13.3361 30.6237 13.3361 26.9998C13.3361 23.3759 14.7756 19.9005 17.3381 17.338ZM43.6943 15.3708C44.0087 15.0742 44.2604 14.7176 44.4345 14.3219C44.6086 13.9263 44.7016 13.4998 44.7079 13.0676C44.7142 12.6354 44.6337 12.2063 44.4712 11.8058C44.3087 11.4053 44.0675 11.0414 43.7619 10.7358C43.4562 10.4301 43.0924 10.1889 42.6918 10.0264C42.2913 9.86392 41.8622 9.78344 41.43 9.78975C40.9978 9.79605 40.5713 9.889 40.1757 10.0631C39.7801 10.2372 39.4234 10.4889 39.1268 10.8033C38.55 11.4148 38.2341 12.227 38.2464 13.0676C38.2587 13.9081 38.598 14.7108 39.1924 15.3052C39.7868 15.8996 40.5895 16.239 41.43 16.2512C42.2706 16.2635 43.0828 15.9477 43.6943 15.3708Z" fill="#6DDA9B"/>
</svg>
