<svg width="1920" height="434" viewBox="0 0 1920 434" fill="none" xmlns="http://www.w3.org/2000/svg">
<path d="M1402.19 166.804C1399.7 166.811 1397.27 166.015 1395.26 164.534C1393.25 163.053 1391.77 160.965 1391.04 158.576L1365.58 76.5269C1364.66 73.418 1362.76 70.694 1360.16 68.767C1357.56 66.84 1354.4 65.8149 1351.17 65.8467C1347.95 65.8073 1344.8 66.8167 1342.2 68.7235C1339.6 70.6303 1337.68 73.3317 1336.74 76.4225L1251.61 344.001C1250.85 346.384 1249.35 348.459 1247.33 349.924C1245.31 351.389 1242.87 352.165 1240.38 352.14C1237.88 352.115 1235.46 351.289 1233.47 349.783C1231.48 348.278 1230.02 346.173 1229.31 343.775L1139.91 40.7117C1138.99 37.5503 1137.06 34.7777 1134.42 32.8125C1131.78 30.8473 1128.58 29.7962 1125.29 29.8178C1122.01 29.8394 1118.82 30.9326 1116.21 32.9323C1113.59 34.932 1111.7 37.7297 1110.81 40.903L1058.93 226.206C1058.28 228.685 1056.82 230.874 1054.78 232.422C1052.74 233.97 1050.25 234.789 1047.69 234.747H1047.59C1045.02 234.768 1042.52 233.922 1040.49 232.344C1038.46 230.766 1037.02 228.549 1036.4 226.05L1028.32 195.296C1027.41 191.984 1025.41 189.079 1022.64 187.057C1019.87 185.034 1016.5 184.013 1013.08 184.161C1009.65 184.308 1006.38 185.615 1003.8 187.868C1001.21 190.121 999.463 193.188 998.839 196.566L960.272 419.18C959.791 422.383 958.163 425.3 955.692 427.384C953.221 429.469 950.077 430.578 946.849 430.504H946.763C943.516 430.563 940.362 429.425 937.897 427.306C935.432 425.186 933.829 422.233 933.392 419.006L868.881 15.455C868.334 11.3694 866.299 7.63168 863.167 4.96252C860.035 2.29336 856.029 0.881841 851.921 1.00017C847.819 0.919195 843.831 2.36046 840.724 5.04742C837.616 7.73438 835.607 11.4778 835.082 15.5593L801.682 234.729C801.293 237.251 800.094 239.576 798.268 241.352C796.443 243.128 794.089 244.258 791.565 244.571C789.04 244.884 786.483 244.362 784.281 243.085C782.079 241.808 780.353 239.845 779.363 237.495L744.038 153.167C742.824 150.263 740.739 147.81 738.074 146.147C735.408 144.484 732.293 143.694 729.16 143.885C726.026 144.076 723.03 145.239 720.584 147.214C718.139 149.188 716.366 151.877 715.511 154.906L650.359 384.948C649.702 387.422 648.239 389.605 646.202 391.149C644.166 392.694 641.674 393.511 639.121 393.471H638.983C636.42 393.479 633.929 392.628 631.905 391.052C629.882 389.476 628.442 387.266 627.815 384.774L555.673 104.949C554.862 101.829 553.082 99.0485 550.591 97.0095C548.1 94.9705 545.028 93.7787 541.818 93.6064C538.607 93.434 535.425 94.2901 532.732 96.0508C530.039 97.8115 527.973 100.386 526.834 103.401L466.433 264.3C465.609 266.499 464.144 268.398 462.229 269.751C460.314 271.104 458.037 271.847 455.695 271.885C453.353 271.922 451.054 271.252 449.097 269.962C447.14 268.671 445.615 266.819 444.721 264.648L402.199 161.62C401.096 158.943 399.252 156.638 396.884 154.977C394.517 153.317 391.725 152.37 388.839 152.25C385.953 152.129 383.093 152.839 380.596 154.296C378.099 155.753 376.07 157.896 374.748 160.472C373.765 162.388 372.273 163.994 370.436 165.111C368.6 166.229 366.491 166.815 364.343 166.804H-160V170.283H364.36C367.144 170.29 369.875 169.526 372.253 168.074C374.631 166.622 376.562 164.539 377.834 162.055C378.854 160.071 380.419 158.421 382.343 157.299C384.267 156.177 386.471 155.631 388.695 155.724C390.919 155.817 393.07 156.546 394.894 157.825C396.718 159.104 398.14 160.88 398.991 162.942L441.513 265.987C442.623 268.781 444.552 271.173 447.044 272.846C449.535 274.52 452.474 275.397 455.473 275.363H455.751C458.786 275.337 461.741 274.383 464.22 272.626C466.7 270.87 468.585 268.396 469.624 265.535L530.025 104.636C530.897 102.305 532.487 100.312 534.565 98.9495C536.643 97.5866 539.101 96.9239 541.58 97.0578C544.059 97.1916 546.431 98.115 548.351 99.6938C550.271 101.273 551.64 103.424 552.257 105.837L624.398 385.557C625.225 388.793 627.092 391.665 629.711 393.729C632.33 395.793 635.554 396.933 638.884 396.972C642.215 397.012 645.465 395.949 648.132 393.948C650.799 391.947 652.733 389.12 653.636 385.904L718.841 155.811C719.505 153.478 720.875 151.409 722.761 149.89C724.648 148.371 726.957 147.476 729.372 147.329C731.786 147.182 734.187 147.79 736.242 149.069C738.298 150.349 739.907 152.236 740.847 154.471L776.103 238.765C777.38 241.817 779.616 244.367 782.471 246.027C785.326 247.687 788.644 248.366 791.919 247.96C795.194 247.554 798.247 246.086 800.614 243.78C802.981 241.473 804.531 238.454 805.029 235.182L838.429 16.0116C838.871 12.7711 840.483 9.80616 842.961 7.68006C845.439 5.55396 848.609 4.41482 851.869 4.47906C855.131 4.40231 858.307 5.53433 860.79 7.65868C863.273 9.78303 864.888 12.7507 865.326 15.9942L929.82 419.545C930.378 423.59 932.391 427.29 935.479 429.949C938.568 432.608 942.519 434.043 946.589 433.983H946.71C950.764 434.071 954.711 432.675 957.813 430.056C960.915 427.438 962.961 423.775 963.567 419.754L1002.12 197.105C1002.57 194.472 1003.91 192.075 1005.91 190.311C1007.91 188.548 1010.46 187.524 1013.12 187.41C1015.78 187.296 1018.4 188.1 1020.55 189.686C1022.69 191.272 1024.23 193.547 1024.9 196.131L1033.11 226.902C1033.9 230.158 1035.76 233.05 1038.4 235.106C1041.04 237.163 1044.3 238.262 1047.64 238.226H1047.78C1051.09 238.283 1054.33 237.222 1056.97 235.213C1059.61 233.204 1061.51 230.362 1062.34 227.145L1114.16 41.8423C1114.85 39.3998 1116.31 37.2469 1118.32 35.7079C1120.33 34.1689 1122.78 33.3272 1125.31 33.3095C1127.84 33.2918 1130.31 34.0992 1132.34 35.6099C1134.38 37.1207 1135.86 39.253 1136.58 41.6858L1225.98 344.767C1226.9 347.882 1228.79 350.62 1231.38 352.577C1233.96 354.535 1237.1 355.609 1240.34 355.642C1243.58 355.675 1246.75 354.665 1249.37 352.761C1252 350.857 1253.94 348.158 1254.92 345.062L1340.05 77.5357C1340.78 75.1529 1342.25 73.0698 1344.26 71.5989C1346.26 70.1279 1348.69 69.3486 1351.17 69.3777C1353.66 69.3568 1356.09 70.148 1358.09 71.632C1360.09 73.116 1361.56 75.2124 1362.27 77.6053L1387.73 159.672C1388.68 162.772 1390.6 165.482 1393.2 167.403C1395.8 169.323 1398.96 170.351 1402.19 170.335H1921V166.856L1402.19 166.804Z" fill="#A4E9C0"/>
</svg>
