<svg width="198" height="225" viewBox="0 0 198 225" fill="none" xmlns="http://www.w3.org/2000/svg">
<path d="M61.4407 22.3594C48.0474 26.0505 34.7451 30.0642 21.5454 34.3969C20.3401 34.7873 19.2687 35.5084 18.4532 36.478C17.6377 37.4477 17.1109 38.6269 16.9329 39.8812C9.14226 98.3391 27.1423 140.991 48.6157 169.088C57.7073 181.102 68.548 191.687 80.7766 200.489C85.6423 203.92 89.9454 206.395 93.3344 207.984C95.0219 208.786 96.4001 209.32 97.4548 209.644C97.916 209.806 98.3916 209.923 98.8751 209.995C99.3528 209.918 99.8232 209.8 100.281 209.644C101.35 209.32 102.728 208.786 104.416 207.984C107.791 206.395 112.108 203.906 116.974 200.489C129.202 191.687 140.043 181.102 149.134 169.088C170.608 141.005 188.608 98.3391 180.817 39.8812C180.641 38.6263 180.115 37.4463 179.299 36.4764C178.483 35.5065 177.411 34.7859 176.205 34.3969C167.05 31.4016 151.595 26.5219 136.309 22.3734C120.7 18.1406 106.342 15.0047 98.8751 15.0047C91.422 15.0047 77.0501 18.1406 61.4407 22.3734V22.3594ZM57.7001 7.875C72.9579 3.72656 89.172 0 98.8751 0C108.578 0 124.792 3.72656 140.05 7.875C155.659 12.0938 171.395 17.0859 180.649 20.1094C184.517 21.387 187.947 23.73 190.544 26.8692C193.141 30.0085 194.8 33.8167 195.33 37.8562C203.711 100.814 184.263 147.473 160.666 178.341C150.659 191.545 138.728 203.173 125.27 212.836C120.617 216.18 115.687 219.12 110.533 221.625C106.595 223.481 102.363 225 98.8751 225C95.3876 225 91.1688 223.481 87.2173 221.625C82.0636 219.12 77.1331 216.18 72.4798 212.836C59.0223 203.173 47.0911 191.545 37.0844 178.341C13.4876 147.473 -5.96086 100.814 2.42039 37.8562C2.95037 33.8167 4.60912 30.0085 7.20609 26.8692C9.80307 23.73 13.2329 21.387 17.1016 20.1094C30.534 15.7051 44.0708 11.6258 57.7001 7.875Z" fill="#6DDA9B"/>
<path d="M139.009 72.3655C139.664 73.0186 140.184 73.7945 140.538 74.6488C140.893 75.503 141.075 76.4188 141.075 77.3436C141.075 78.2685 140.893 79.1842 140.538 80.0385C140.184 80.8927 139.664 81.6686 139.009 82.3217L96.822 124.509C96.1688 125.164 95.3929 125.684 94.5387 126.038C93.6845 126.392 92.7687 126.575 91.8438 126.575C90.919 126.575 90.0032 126.392 89.149 126.038C88.2948 125.684 87.5188 125.164 86.8657 124.509L65.772 103.416C65.1182 102.762 64.5996 101.986 64.2458 101.132C63.892 100.277 63.7099 99.3619 63.7099 98.4374C63.7099 97.5128 63.892 96.5974 64.2458 95.7432C64.5996 94.8891 65.1182 94.113 65.772 93.4592C66.4257 92.8055 67.2018 92.2869 68.0559 91.9331C68.9101 91.5793 69.8256 91.3972 70.7501 91.3972C71.6746 91.3972 72.5901 91.5793 73.4442 91.9331C74.2984 92.2869 75.0745 92.8055 75.7282 93.4592L91.8438 109.589L129.053 72.3655C129.706 71.7107 130.482 71.1912 131.336 70.8367C132.191 70.4823 133.106 70.2998 134.031 70.2998C134.956 70.2998 135.872 70.4823 136.726 70.8367C137.58 71.1912 138.356 71.7107 139.009 72.3655Z" fill="#6DDA9B"/>
</svg>
