<svg width="677" height="409" viewBox="0 0 677 409" fill="none" xmlns="http://www.w3.org/2000/svg">
<path d="M562.018 175.838C560.362 78.6406 480.894 0 383.766 0C317.887 0 257.044 37.1818 225.726 94.6446C211.377 84.5041 194.477 78.5716 176.748 78.5716C131.15 78.5716 93.8995 115.753 93.8995 161.42C93.8995 163.076 93.8995 165.628 93.8995 167.353C38.989 180.046 0.0826416 229.023 0.0826416 286.486C0.0826416 354.09 54.9931 409 122.596 409H559.534C623.758 409 676.116 356.642 676.116 292.419C676.116 229.023 625.413 177.493 562.018 175.838ZM559.534 392.168H122.596C64.3058 392.168 16.9835 344.846 16.9835 286.555C16.9835 235.025 54.1653 191.083 104.868 182.598L113.353 180.942L111.628 172.457C110.8 168.249 110.8 164.869 110.8 161.489C110.8 125.135 140.394 95.5414 176.748 95.5414C193.649 95.5414 209.722 102.302 222.346 114.098L230.831 122.583L235.866 112.442C262.08 54.9794 320.371 17.7976 383.766 17.7976C473.306 17.7976 546.014 90.5056 546.014 180.046C546.014 181.701 546.014 183.426 546.014 184.254V194.394L556.982 193.566C558.638 193.566 559.534 193.566 561.19 193.566C616.1 193.566 660.939 238.336 660.939 293.247C660.939 348.226 614.445 392.168 559.534 392.168Z" fill="white" fill-opacity="0.19"/>
</svg>
