<svg width="59" height="69" viewBox="0 0 59 69" fill="none" xmlns="http://www.w3.org/2000/svg">
<path d="M53.7943 68.0053H24.5935C23.3028 68.0053 22.0649 67.4936 21.1522 66.5826C20.2395 65.6716 19.7267 64.4361 19.7267 63.1478V55.8615H24.5935V63.1478H53.7943V4.85752H24.5935V12.1438H19.7267V4.85752C19.7267 3.56923 20.2395 2.3337 21.1522 1.42274C22.0649 0.511773 23.3028 0 24.5935 0H53.7943C55.0851 0 56.3229 0.511773 57.2356 1.42274C58.1483 2.3337 58.6611 3.56923 58.6611 4.85752V63.1478C58.6611 64.4361 58.1483 65.6716 57.2356 66.5826C56.3229 67.4936 55.0851 68.0053 53.7943 68.0053Z" fill="#6DDA9B"/>
<path d="M25.9606 44.9238L34.7367 36.3821H0V31.6234H34.7367L25.9606 23.0816L29.4171 19.7268L44.1256 34.0027L29.4171 48.2787L25.9606 44.9238Z" fill="#6DDA9B"/>
</svg>
