<svg width="49" height="49" viewBox="0 0 49 49" fill="none" xmlns="http://www.w3.org/2000/svg">
<path d="M47.04 0H1.96C0.875875 0 0 0.875875 0 1.96V47.04C0 48.1241 0.875875 49 1.96 49H47.04C48.1241 49 49 48.1241 49 47.04V1.96C49 0.875875 48.1241 0 47.04 0ZM45.08 45.08H33.8039V30.0248H40.1739L41.1294 22.6319H33.8039V17.9095C33.8039 15.7657 34.398 14.308 37.4666 14.308H41.3805V7.693C40.7006 7.60113 38.3793 7.399 35.672 7.399C30.0248 7.399 26.1599 10.8474 26.1599 17.1745V22.6257H19.7776V30.0186H26.166V45.08H3.92V3.92H45.08V45.08Z" fill="#6DDA9B"/>
</svg>
