<svg width="714" height="696" viewBox="0 0 714 696" fill="none" xmlns="http://www.w3.org/2000/svg">
<path d="M528.829 425.556C535.436 409.817 535.535 392.098 529.104 376.286C522.674 360.474 510.238 347.862 494.528 341.217C461.846 327.436 424.056 342.855 410.288 375.555C396.52 408.254 411.924 446.092 444.594 459.873C452.467 463.203 460.927 464.919 469.475 464.921C494.581 464.942 518.489 450.133 528.829 425.556ZM451.06 444.52C442.386 440.855 434.992 434.699 429.812 426.829C424.632 418.959 421.9 409.728 421.96 400.304C422.02 390.88 424.869 381.686 430.149 373.882C435.428 366.079 442.9 360.017 451.62 356.463C460.341 352.909 469.918 352.022 479.141 353.915C488.365 355.808 496.821 360.395 503.441 367.097C510.06 373.798 514.547 382.314 516.333 391.567C518.118 400.82 517.124 410.396 513.474 419.083C508.556 430.731 499.223 439.951 487.522 444.72C475.821 449.488 462.708 449.416 451.06 444.52ZM264.036 380.873C256.765 377.069 248.726 374.969 240.526 374.73C232.325 374.492 224.178 376.121 216.698 379.495C209.219 382.87 202.603 387.901 197.351 394.209C192.098 400.517 188.346 407.937 186.378 415.908C184.41 423.88 184.277 432.195 185.989 440.226C187.701 448.257 191.214 455.794 196.262 462.267C201.31 468.74 207.761 473.98 215.128 477.593C222.496 481.205 230.587 483.095 238.791 483.119C244.293 483.114 249.763 482.273 255.013 480.626C265.236 477.433 274.284 471.277 281.012 462.938C287.74 454.598 291.847 444.448 292.813 433.773C293.779 423.097 291.56 412.374 286.438 402.961C281.316 393.547 273.52 385.864 264.036 380.885V380.873ZM272.086 446.293C269.224 451.759 265.059 456.435 259.96 459.905C254.861 463.376 248.985 465.534 242.854 466.188C236.723 466.843 230.525 465.974 224.81 463.658C219.094 461.342 214.038 457.65 210.088 452.911C206.138 448.172 203.417 442.53 202.166 436.487C200.915 430.443 201.173 424.184 202.916 418.264C204.659 412.344 207.834 406.946 212.16 402.547C216.485 398.149 221.828 394.887 227.714 393.049C231.348 391.908 235.134 391.325 238.942 391.321C245.388 391.338 251.72 393.017 257.329 396.196C262.938 399.376 267.633 403.948 270.963 409.472C274.292 414.996 276.144 421.286 276.338 427.735C276.533 434.183 275.064 440.574 272.074 446.289L272.086 446.293ZM307.495 297.676C313.341 299.018 319.394 299.193 325.307 298.19C331.22 297.187 336.877 295.027 341.955 291.832C347.032 288.637 351.43 284.472 354.897 279.573C358.364 274.675 360.831 269.14 362.158 263.286C367.766 238.746 352.341 214.205 327.8 208.576C303.258 202.947 278.761 218.402 273.145 242.967C270.462 254.781 272.574 267.179 279.016 277.437C285.458 287.694 295.704 294.974 307.504 297.676H307.495ZM289.367 246.692C290.578 241.365 293.267 236.488 297.125 232.622C300.982 228.757 305.851 226.059 311.172 224.841C316.493 223.622 322.049 223.931 327.202 225.733C332.355 227.534 336.896 230.755 340.301 235.025C343.707 239.295 345.839 244.44 346.453 249.869C347.066 255.298 346.137 260.79 343.771 265.713C341.405 270.637 337.698 274.792 333.077 277.701C328.457 280.609 323.11 282.153 317.652 282.156C313.299 282.149 309.004 281.163 305.084 279.27C301.164 277.378 297.718 274.628 295.003 271.224C292.287 267.82 290.371 263.848 289.395 259.602C288.42 255.357 288.41 250.946 289.367 246.696V246.692ZM480.51 536.318L488.548 550.951C491.222 555.834 495.595 559.563 500.836 561.429C506.078 563.295 511.821 563.168 516.975 561.071L548.323 548.294H548.368C553.499 546.171 557.676 542.243 560.113 537.251C562.551 532.259 563.08 526.546 561.6 521.191L557.068 504.908C562.279 500.52 567.156 495.75 571.658 490.636L587.749 495.32C593.087 496.875 598.81 496.414 603.831 494.023C608.851 491.633 612.82 487.48 614.983 482.354L628.129 451.12C630.29 445.985 630.49 440.235 628.691 434.962C626.891 429.69 623.218 425.264 618.369 422.526L604.953 414.973C605.788 407.346 605.956 399.661 605.456 392.005L619.126 384.472C624.006 381.797 627.733 377.419 629.598 372.173C631.463 366.926 631.336 361.176 629.241 356.017L616.471 324.636V324.595C614.35 319.46 610.426 315.279 605.439 312.839C600.451 310.399 594.745 309.868 589.394 311.347L575.626 315.183C570.28 308.528 564.312 302.399 557.804 296.878L561.727 283.367C563.281 278.024 562.82 272.296 560.432 267.271C558.044 262.246 553.895 258.273 548.773 256.109L517.564 242.95C512.438 240.798 506.7 240.603 501.44 242.404C496.18 244.204 491.762 247.875 489.026 252.719L482.097 264.973C473.915 264.206 465.68 264.188 457.494 264.919L450.95 252.981C448.276 248.098 443.903 244.369 438.661 242.503C433.42 240.637 427.676 240.764 422.522 242.86L414.505 246.135L410.824 244.834C410.469 240.781 409.845 236.758 408.955 232.789L412.513 229.923C416.816 226.459 419.699 221.535 420.615 216.085C421.531 210.635 420.416 205.037 417.483 200.355L409.806 188.114C406.869 183.439 402.318 180.007 397.019 178.471C391.72 176.935 386.041 177.402 381.063 179.782L377.791 181.362C374.23 178.383 370.453 175.674 366.49 173.256L366.862 169.821C367.477 164.321 366.042 158.787 362.832 154.281C359.621 149.774 354.862 146.613 349.466 145.404L335.506 142.223C330.114 140.968 324.449 141.751 319.598 144.421C314.748 147.092 311.054 151.461 309.226 156.691L308.076 159.967C303.664 160.415 299.289 161.181 294.987 162.259L293.02 159.823C289.561 155.516 284.642 152.63 279.197 151.713C273.752 150.796 268.161 151.912 263.484 154.849L251.324 162.489C246.656 165.431 243.229 169.985 241.693 175.288C240.158 180.591 240.62 186.273 242.992 191.258L244.595 194.599C242.087 197.744 239.783 201.048 237.699 204.49L233.948 204.081C228.453 203.468 222.925 204.908 218.425 208.123C213.924 211.339 210.768 216.104 209.562 221.505L206.375 235.499C205.129 240.892 205.915 246.555 208.581 251.404C211.248 256.254 215.608 259.948 220.826 261.779L224.61 263.114C225.044 267.236 225.762 271.323 226.757 275.347L223.289 278.147C220.746 280.194 218.677 282.77 217.227 285.696C215.776 288.621 214.978 291.828 214.887 295.093C212.816 295.151 210.762 295.496 208.785 296.116L186.456 303.076C181.165 304.726 176.673 308.279 173.846 313.049C171.019 317.819 170.057 323.468 171.146 328.906L172.749 337.311C168.157 340.637 163.825 344.307 159.791 348.292L151.647 345.148C146.495 343.177 140.801 343.165 135.64 345.114C130.48 347.062 126.213 350.837 123.645 355.723L112.761 376.468L112.741 376.513C110.203 381.41 109.544 387.068 110.887 392.418C112.231 397.769 115.484 402.442 120.034 405.556L127.462 410.654C126.509 416.381 126.008 422.174 125.964 427.98L117.195 431.857C112.137 434.084 108.078 438.1 105.794 443.137C103.51 448.173 103.163 453.876 104.818 459.152L111.771 481.494C113.414 486.764 116.935 491.246 121.663 494.089C126.391 496.931 131.997 497.936 137.417 496.912L147.234 495.07C150.695 499.865 154.524 504.382 158.687 508.581L155.063 518.042C153.1 523.201 153.095 528.902 155.047 534.065C156.999 539.228 160.773 543.496 165.657 546.062L186.37 556.945L186.411 556.969C191.308 559.512 196.966 560.173 202.317 558.825C207.667 557.478 212.34 554.217 215.452 549.657L221.587 540.65C226.866 541.475 232.197 541.918 237.539 541.976L241.818 551.581C244.043 556.639 248.054 560.697 253.083 562.98C258.111 565.263 263.804 565.609 269.071 563.954L291.4 556.994C296.66 555.334 301.129 551.802 303.962 547.066C306.795 542.33 307.794 536.719 306.771 531.295L304.796 520.785C308.878 517.851 312.759 514.647 316.412 511.193L326.266 514.984C331.418 516.955 337.114 516.967 342.275 515.018C347.435 513.07 351.704 509.295 354.272 504.409L362.232 489.261L365.504 488.352C370.599 494.399 376.21 499.991 382.274 505.064L377.742 520.622C376.189 525.964 376.65 531.691 379.037 536.716C381.424 541.741 385.571 545.714 390.692 547.88L421.905 561.039C424.679 562.211 427.659 562.816 430.67 562.815C434.692 562.812 438.641 561.742 442.115 559.714C445.589 557.686 448.464 554.772 450.447 551.27L458.873 536.347C466.074 536.915 473.31 536.905 480.51 536.318ZM226.356 246.045C225.005 245.571 223.876 244.615 223.184 243.36C222.493 242.104 222.289 240.638 222.61 239.241L225.808 225.19V225.157C226.12 223.756 226.94 222.521 228.108 221.689C229.277 220.858 230.712 220.489 232.136 220.654L246.971 222.246L249.61 217.239C252.606 211.535 256.303 206.229 260.617 201.444L264.372 197.289L258.032 184.073C257.397 182.784 257.264 181.305 257.659 179.923C258.055 178.542 258.95 177.357 260.171 176.601L272.335 168.957C273.553 168.177 275.018 167.879 276.443 168.123C277.869 168.367 279.152 169.134 280.041 170.276L289.04 181.444L294.501 179.745C300.966 177.683 307.68 176.506 314.461 176.245L320.134 176.028L324.965 162.227C325.433 160.872 326.385 159.737 327.637 159.041C328.889 158.345 330.354 158.137 331.751 158.456L345.78 161.653H345.809C347.207 161.966 348.44 162.786 349.271 163.955C350.102 165.123 350.471 166.558 350.308 167.983L348.734 182.476L353.72 185.129C359.885 188.416 365.575 192.527 370.633 197.35L374.805 201.305L388.201 194.848C389.489 194.214 390.967 194.083 392.347 194.479C393.727 194.876 394.91 195.772 395.666 196.994L403.343 209.223C404.124 210.434 404.427 211.892 404.193 213.314C403.958 214.736 403.203 216.02 402.075 216.916L390.025 226.578L391.543 231.9C393.328 238.109 394.304 244.523 394.447 250.983L394.508 254.258L391.236 255.597L391.191 255.617C386.057 257.737 381.876 261.664 379.436 266.656C376.995 271.649 376.464 277.363 377.942 282.72L381.591 295.891C381.168 296.525 380.736 297.151 380.294 297.77C375.044 302.335 370.155 307.299 365.672 312.62L351.765 308.579C346.427 307.026 340.704 307.488 335.684 309.878C330.664 312.268 326.696 316.42 324.531 321.545L322.724 325.782C320.75 320.732 317.026 316.561 312.232 314.032L291.515 303.142H291.474C286.971 300.806 281.813 300.055 276.832 301.011C271.851 301.967 267.336 304.574 264.016 308.411L255.508 318.032L238.055 314.986L232.431 298.835C231.651 297.617 231.353 296.151 231.595 294.725C231.837 293.299 232.601 292.014 233.739 291.122L245.904 281.296L244.19 275.875C242.238 269.663 241.111 263.221 240.84 256.715L240.607 251.065L226.356 246.045ZM339.526 496.63C338.863 497.906 337.754 498.893 336.412 499.405C335.069 499.918 333.585 499.919 332.242 499.41L312.175 491.717L308.342 495.737C303.161 501.146 297.365 505.929 291.073 509.989L286.373 513.006L290.398 534.361C290.664 535.772 290.405 537.23 289.669 538.462C288.934 539.694 287.773 540.614 286.406 541.047L264.073 548.007C262.712 548.436 261.241 548.347 259.941 547.758C258.642 547.169 257.605 546.12 257.029 544.814L248.203 524.99L242.57 525.203C234.821 525.519 227.063 524.873 219.472 523.279L214 522.116L201.651 540.269C200.835 541.455 199.615 542.302 198.22 542.651C196.825 543.001 195.35 542.83 194.072 542.169L173.428 531.303C172.153 530.638 171.166 529.527 170.654 528.181C170.143 526.835 170.143 525.349 170.655 524.003L178.292 504.04L174.087 500.208C167.958 494.626 162.574 488.277 158.065 481.318L155.022 476.634L134.366 480.507C132.959 480.774 131.502 480.514 130.274 479.778C129.045 479.041 128.129 477.879 127.699 476.512L120.745 454.166C120.31 452.8 120.395 451.322 120.984 450.016C121.573 448.709 122.625 447.668 123.936 447.091L142.972 438.674L142.731 432.995C142.36 424.829 143.055 416.65 144.796 408.664L146.023 403.153L129.404 391.776C128.22 390.961 127.374 389.741 127.025 388.345C126.676 386.949 126.849 385.474 127.511 384.197L138.37 363.51C139.034 362.235 140.141 361.248 141.483 360.735C142.824 360.222 144.307 360.219 145.651 360.726L164.25 367.882L168.111 363.69C173.552 357.733 179.731 352.495 186.497 348.104L191.196 345.049L187.515 325.75V325.672C187.229 324.272 187.47 322.816 188.191 321.583C188.913 320.35 190.065 319.428 191.425 318.994L213.758 312.034C215.119 311.605 216.589 311.694 217.889 312.282C219.188 312.87 220.226 313.918 220.802 315.224L228.651 332.828L234.377 332.538C242.874 332.114 251.389 332.849 259.688 334.724L265.198 335.952L276.242 319.793C277.056 318.607 278.274 317.76 279.669 317.411C281.063 317.062 282.537 317.235 283.813 317.897L304.469 328.771C305.743 329.438 306.728 330.549 307.239 331.894C307.749 333.24 307.749 334.726 307.238 336.071L300.284 354.29L304.436 358.122C306.248 359.8 308.007 361.557 309.688 363.371C309.983 367.076 311.182 370.652 313.179 373.786C315.175 376.92 317.909 379.516 321.141 381.348L334.041 388.627C333.346 396.39 333.332 404.199 334 411.964L320.331 419.517C315.451 422.192 311.724 426.57 309.86 431.816C307.995 437.063 308.123 442.813 310.22 447.971L322.985 479.353V479.398C324.528 483.132 327.034 486.389 330.247 488.835C333.461 491.281 337.266 492.828 341.273 493.318L339.526 496.63ZM455.281 519.213L449.764 518.546L435.934 543.037C435.21 544.325 434.039 545.302 432.643 545.784C431.247 546.266 429.723 546.22 428.359 545.653L397.167 532.503C395.811 531.926 394.714 530.871 394.083 529.538C393.453 528.206 393.333 526.688 393.747 525.272L401.433 498.886L396.901 495.402C388.743 489.134 381.425 481.841 375.128 473.703L371.701 469.281L345.629 476.569C344.203 476.959 342.684 476.814 341.356 476.162C340.029 475.51 338.986 474.395 338.422 473.027L325.669 441.679C325.114 440.306 325.085 438.776 325.586 437.383C326.087 435.99 327.083 434.83 328.384 434.125L351.855 421.151L351.147 415.538C349.85 405.468 349.87 395.273 351.208 385.209L351.969 379.604L329.338 366.846C328.05 366.124 327.073 364.953 326.592 363.557C326.111 362.16 326.159 360.635 326.728 359.272L339.874 328.038C340.451 326.679 341.507 325.579 342.841 324.948C344.175 324.317 345.694 324.199 347.11 324.616L371.807 331.772L375.271 327.269C381.375 319.354 388.46 312.249 396.357 306.127L400.762 302.696L393.989 278.266C393.597 276.836 393.742 275.311 394.397 273.98C395.052 272.649 396.171 271.605 397.543 271.044L428.789 258.307C430.157 257.754 431.681 257.723 433.07 258.221C434.46 258.72 435.617 259.712 436.323 261.009L448.295 282.843L453.952 282.09C464.42 280.698 475.026 280.719 485.488 282.151L491.084 282.913L503.514 260.936C504.237 259.647 505.407 258.669 506.803 258.187C508.199 257.706 509.723 257.754 511.085 258.324L542.294 271.482C543.651 272.06 544.748 273.117 545.378 274.451C546.009 275.785 546.128 277.304 545.714 278.721L538.691 302.978L543.157 306.454C551.719 313.116 559.32 320.929 565.748 329.672L569.155 334.306L593.864 327.42C595.291 327.03 596.811 327.174 598.139 327.826C599.467 328.478 600.511 329.593 601.076 330.961L613.829 362.31C614.383 363.682 614.412 365.21 613.912 366.603C613.412 367.995 612.417 369.155 611.117 369.86L587.831 382.691L588.424 388.214C589.505 398.196 589.276 408.276 587.745 418.199L586.862 423.931L610.176 437.065C611.463 437.787 612.439 438.957 612.92 440.353C613.401 441.748 613.354 443.272 612.786 444.635L599.64 475.873C599.062 477.231 598.007 478.329 596.674 478.96C595.341 479.591 593.823 479.71 592.408 479.296L565.821 471.554L562.336 475.848C556.488 483.059 549.827 489.569 542.486 495.25L538.044 498.681L545.55 525.657C545.941 527.083 545.798 528.603 545.148 529.931C544.498 531.258 543.385 532.303 542.02 532.867L510.697 545.637C509.327 546.19 507.801 546.221 506.41 545.722C505.02 545.223 503.861 544.229 503.154 542.93L489.738 518.501L484.13 519.197C474.556 520.38 464.874 520.389 455.298 519.225L455.281 519.213ZM32.4933 354.155V505.637C22.5288 507.833 13.7256 513.635 7.77338 521.93C1.82119 530.225 -0.860555 540.428 0.242862 550.581C1.34628 560.734 6.15711 570.121 13.752 576.941C21.3468 583.761 31.1906 587.533 41.3938 587.533C51.597 587.533 61.4407 583.761 69.0356 576.941C76.6304 570.121 81.4413 560.734 82.5447 550.581C83.6481 540.428 80.9664 530.225 75.0142 521.93C69.062 513.635 60.2588 507.833 50.2942 505.637V371.98H103.787V354.155H32.4933ZM64.9865 546.124C64.9865 550.794 63.6028 555.36 61.0104 559.244C58.418 563.127 54.7333 566.154 50.4223 567.941C46.1113 569.728 41.3676 570.196 36.7911 569.285C32.2145 568.374 28.0107 566.125 24.7112 562.822C21.4117 559.519 19.1647 555.312 18.2543 550.731C17.344 546.15 17.8112 541.402 19.5969 537.087C21.3826 532.772 24.4065 529.084 28.2863 526.489C32.1661 523.894 36.7276 522.509 41.3938 522.509C47.6501 522.516 53.6478 525.008 58.0709 529.437C62.494 533.866 64.9811 539.87 64.9865 546.132V546.124ZM542.781 150.546H632.17C634.364 160.52 640.161 169.331 648.448 175.289C656.735 181.247 666.929 183.931 677.072 182.827C687.215 181.722 696.594 176.907 703.407 169.305C710.221 161.703 713.989 151.85 713.989 141.637C713.989 131.424 710.221 121.571 703.407 113.969C696.594 106.368 687.215 101.552 677.072 100.448C666.929 99.3433 656.735 102.028 648.448 107.985C640.161 113.943 634.364 122.755 632.17 132.728L524.98 132.593V233.579H542.781V150.546ZM672.594 118.022C677.26 118.022 681.822 119.407 685.702 122.002C689.581 124.597 692.605 128.285 694.391 132.6C696.177 136.915 696.644 141.663 695.734 146.244C694.823 150.825 692.576 155.033 689.277 158.335C685.977 161.638 681.773 163.887 677.197 164.798C672.62 165.71 667.877 165.242 663.566 163.454C659.255 161.667 655.57 158.64 652.978 154.757C650.385 150.873 649.001 146.308 649.001 141.637C649.009 135.374 651.499 129.37 655.924 124.943C660.35 120.516 666.349 118.027 672.607 118.022H672.594ZM111.554 81.8958V232.969H189.421V215.18H129.355V81.8958C139.32 79.6999 148.123 73.8976 154.075 65.6027C160.027 57.3078 162.709 47.1047 161.606 36.9518C160.502 26.7989 155.692 17.4117 148.097 10.5918C140.502 3.77192 130.658 0 120.455 0C110.252 0 100.408 3.77192 92.8131 10.5918C85.2182 17.4117 80.4074 26.7989 79.304 36.9518C78.2006 47.1047 80.8823 57.3078 86.8345 65.6027C92.7867 73.8976 101.59 79.6999 111.554 81.8958ZM120.455 17.8311C125.121 17.8311 129.683 19.2161 133.562 21.8109C137.442 24.4057 140.466 28.0939 142.252 32.4089C144.037 36.724 144.505 41.4721 143.594 46.053C142.684 50.6338 140.437 54.8416 137.137 58.1442C133.838 61.4468 129.634 63.6959 125.058 64.6071C120.481 65.5182 115.737 65.0506 111.426 63.2632C107.115 61.4759 103.431 58.4491 100.838 54.5657C98.2458 50.6822 96.8621 46.1165 96.8621 41.4459C96.8697 35.1852 99.3578 29.1831 103.781 24.7561C108.204 20.3291 114.2 17.8387 120.455 17.8311ZM663.407 613.149C653.979 613.161 644.836 616.39 637.487 622.302C630.138 628.215 625.022 636.458 622.983 645.672H478.629V575.077H460.828V663.314L622.983 663.49C624.664 671.118 628.466 678.115 633.949 683.674C639.432 689.233 646.374 693.127 653.973 694.907C661.572 696.687 669.519 696.281 676.898 693.734C684.276 691.188 690.785 686.606 695.673 680.516C700.561 674.427 703.63 667.078 704.525 659.318C705.421 651.557 704.106 643.702 700.733 636.657C697.36 629.613 692.066 623.667 685.461 619.504C678.857 615.342 671.212 613.133 663.407 613.132V613.149ZM663.407 678.196C658.741 678.196 654.18 676.811 650.3 674.216C646.42 671.621 643.396 667.933 641.611 663.618C639.825 659.303 639.358 654.555 640.268 649.974C641.178 645.393 643.425 641.185 646.725 637.883C650.024 634.58 654.228 632.331 658.805 631.42C663.381 630.509 668.125 630.976 672.436 632.764C676.747 634.551 680.432 637.578 683.024 641.461C685.616 645.345 687 649.911 687 654.581C686.993 660.842 684.505 666.844 680.082 671.271C675.659 675.698 669.662 678.188 663.407 678.196Z" fill="#6DDA9B" fill-opacity="0.21"/>
</svg>
