<svg width="153" height="40" viewBox="0 0 153 40" fill="none" xmlns="http://www.w3.org/2000/svg">
<g opacity="1">
<path opacity="1" d="M48.897 30.3484V0.121704H55.7987V30.3484H48.897Z" fill="#fff"/>
<path opacity="1" d="M65.902 22.5228C66.5946 24.2068 68.1468 25.0486 70.5584 25.0483C72.055 25.0483 73.3161 24.5652 74.3418 23.599L79.3309 27.0773C77.2793 29.6444 74.2998 30.9281 70.3923 30.9282C66.8717 30.9282 64.0515 29.9 61.9316 27.8434C59.8109 25.7873 58.7507 23.1856 58.7509 20.0382C58.7509 16.9192 59.7903 14.3107 61.8692 12.2126C63.948 10.1148 66.595 9.06583 69.8101 9.06567C72.9138 9.06567 75.4776 10.1007 77.5016 12.1709C79.5247 14.2412 80.5364 16.836 80.5367 19.9552C80.5417 20.8195 80.4441 21.6814 80.2458 22.5228L65.902 22.5228ZM65.8187 17.7607H73.8015C73.2465 15.8289 71.9438 14.8627 69.8934 14.8622C67.7585 14.8622 66.4003 15.8284 65.8187 17.7607V17.7607Z" fill="#fff"/>
<path opacity="1" d="M98.2887 9.645H105.107V29.5202C105.107 31.1767 104.795 32.6466 104.172 33.9301C103.548 35.2139 102.71 36.2352 101.656 36.9941C100.605 37.7524 99.4306 38.3265 98.1849 38.6917C96.8818 39.0702 95.5304 39.2585 94.173 39.2507C91.872 39.2507 89.8208 38.8229 88.0196 37.9673C86.2179 37.1111 84.8598 35.8552 83.9454 34.1994L89.6828 30.8865C90.6805 32.46 92.1495 33.2468 94.0897 33.2469C95.3369 33.2469 96.3486 32.9295 97.1248 32.2945C97.9002 31.6593 98.2882 30.7345 98.2887 29.5202V27.5329C96.8754 29.2448 94.9353 30.1005 92.4684 30.1C89.6133 30.1 87.2504 29.0787 85.3796 27.0361C83.5089 24.9933 82.5735 22.5088 82.5735 19.5826C82.5735 16.6571 83.5089 14.1728 85.3796 12.1296C87.2504 10.0873 89.6133 9.06599 92.4684 9.06567C94.9347 9.06567 96.8748 9.92138 98.2887 11.6328V9.645ZM90.7015 22.6674C91.5188 23.4819 92.5789 23.8891 93.8817 23.8891C95.1846 23.8891 96.2448 23.4819 97.0625 22.6674C97.8798 21.8534 98.2885 20.8252 98.2887 19.5826C98.2887 18.3405 97.8799 17.3123 97.0625 16.4978C96.2447 15.6843 95.1844 15.2772 93.8817 15.2766C92.5789 15.2766 91.5188 15.6836 90.7015 16.4978C89.8837 17.3127 89.4748 18.341 89.4748 19.5826C89.4748 20.8252 89.8837 21.8534 90.7015 22.6674Z" fill="#fff"/>
<path opacity="1" d="M123.734 9.645H130.635V30.3484H123.734V28.4436C122.32 30.1 120.352 30.9282 117.83 30.9282C115.058 30.9282 112.737 29.8862 110.866 27.8022C108.995 25.7181 108.059 23.1164 108.06 19.997C108.06 16.878 108.995 14.2763 110.866 12.1917C112.737 10.1077 115.058 9.06567 117.83 9.06567C120.352 9.06567 122.32 9.89373 123.734 11.5498V9.645ZM116.208 23.2681C117.012 24.0963 118.065 24.5103 119.368 24.5102C120.671 24.5102 121.724 24.0961 122.528 23.2681C123.332 22.4399 123.733 21.3495 123.734 19.997C123.734 18.6449 123.332 17.5545 122.528 16.7258C121.724 15.8976 120.67 15.4836 119.368 15.4837C118.065 15.4837 117.012 15.8978 116.208 16.7258C115.404 17.554 115.003 18.6444 115.003 19.997C115.003 21.3495 115.405 22.4399 116.208 23.2681Z" fill="#fff"/>
<path opacity="1" d="M134.626 30.3484V0.121704H141.528V30.3484H134.626Z" fill="#fff"/>
<path opacity="1" d="M44.9051 0.121704H35.6083L29.6283 8.62276L23.6485 0.121704H19.6682H0.14801V30.3466H7.83526V21.3695H13.1908L18.5739 13.8109H7.76692V7.68046H19.6682L24.9751 15.239L14.3516 30.3466H23.6485L29.6283 21.8456L35.5985 30.3466H44.866L34.2717 15.239L44.9051 0.121704Z" fill="#11CA80"/>
<path opacity="1" d="M149.037 30.6384C151.141 30.6384 152.846 28.9398 152.846 26.8445C152.846 24.7491 151.141 23.0505 149.037 23.0505C146.933 23.0505 145.228 24.7491 145.228 26.8445C145.228 28.9398 146.933 30.6384 149.037 30.6384Z" fill="#11CA80"/>
</g>
</svg>
