<svg width="55" height="42" viewBox="0 0 55 42" fill="none" xmlns="http://www.w3.org/2000/svg">
<path d="M51.5111 0.496295C51.2801 0.472589 51.0473 0.472589 50.8164 0.496295H3.37193C3.06785 0.500962 2.76579 0.546377 2.47388 0.631319L26.9586 24.9188L51.5111 0.496295Z" fill="black"/>
<path d="M54.0189 2.84229L29.3478 27.3154C28.7128 27.9441 27.8539 28.297 26.9586 28.297C26.0633 28.297 25.2044 27.9441 24.5694 27.3154L0.118611 3.02794C0.0434446 3.30312 0.00358999 3.58668 0 3.87184V37.6278C0 38.5231 0.357043 39.3817 0.992583 40.0147C1.62812 40.6478 2.4901 41.0034 3.38889 41.0034H50.8333C51.7321 41.0034 52.5941 40.6478 53.2296 40.0147C53.8652 39.3817 54.2222 38.5231 54.2222 37.6278V3.87184C54.2087 3.5202 54.1401 3.17282 54.0189 2.84229ZM5.71028 37.6278H3.355V35.2143L15.6736 23.0452L18.0628 25.425L5.71028 37.6278ZM50.7994 37.6278H48.4272L36.0747 25.425L38.4639 23.0452L50.7825 35.2143L50.7994 37.6278Z" fill="black"/>
</svg>
