<svg width="10" height="11" viewBox="0 0 10 11" fill="none" xmlns="http://www.w3.org/2000/svg">
<path fill-rule="evenodd" clip-rule="evenodd" d="M4.99091 0C2.23457 0 0 2.27595 0 5.08333C0 7.89072 2.23457 10.1667 4.99091 10.1667C7.74725 10.1667 9.98182 7.89072 9.98182 5.08333C9.98182 2.27595 7.74725 0 4.99091 0ZM7.15424 4.22379C7.19408 4.17741 7.2244 4.12339 7.24344 4.0649C7.26247 4.0064 7.26983 3.94463 7.26507 3.8832C7.26032 3.82177 7.24355 3.76193 7.21575 3.7072C7.18796 3.65246 7.1497 3.60395 7.10322 3.5645C7.05674 3.52505 7.00299 3.49547 6.94512 3.47749C6.88725 3.45951 6.82644 3.45351 6.76626 3.45982C6.70608 3.46614 6.64774 3.48465 6.59469 3.51426C6.54164 3.54388 6.49493 3.584 6.45733 3.63227L4.50634 6.01636L3.49681 4.98767C3.41124 4.90349 3.29663 4.85692 3.17767 4.85797C3.0587 4.85902 2.9449 4.90762 2.86078 4.9933C2.77666 5.07898 2.72894 5.19489 2.72791 5.31606C2.72687 5.43722 2.77261 5.55396 2.85525 5.64111L4.21641 7.02748C4.26099 7.07286 4.31437 7.10828 4.37313 7.13148C4.4319 7.15469 4.49477 7.16517 4.55773 7.16225C4.62069 7.15934 4.68237 7.1431 4.73883 7.11456C4.79529 7.08603 4.84529 7.04582 4.88565 6.99651L7.15424 4.22379Z" fill="#6DDA9B"/>
</svg>
