<svg width="75" height="69" viewBox="0 0 75 69" fill="none" xmlns="http://www.w3.org/2000/svg">
<path d="M44.24 55.7294C40.5072 53.9448 37.2984 51.2205 34.9258 47.8218H6.80616V6.83168H68.0616V14.5651C70.8189 16.5062 73.138 19.0086 74.8677 21.9092V6.83168C74.8623 5.02147 74.1435 3.28694 72.8683 2.00693C71.5931 0.726907 69.865 0.00540634 68.0616 0H6.80616C5.00271 0.00540634 3.27466 0.726907 1.99943 2.00693C0.724191 3.28694 0.00538614 5.02147 0 6.83168V47.8218C0.00538614 49.632 0.724191 51.3665 1.99943 52.6465C3.27466 53.9265 5.00271 54.648 6.80616 54.6534H30.6277V61.4851H23.8215V68.3168H51.0462V61.4851H44.24V55.7294Z" fill="#6DDA9B"/>
<path d="M54.5131 13.5698C50.4873 13.5698 46.5519 14.7636 43.2046 17.0002C39.8573 19.2368 37.2484 22.4158 35.7078 26.1351C34.1672 29.8544 33.7641 33.9471 34.5495 37.8955C35.3349 41.8439 37.2735 45.4707 40.1201 48.3174C42.9668 51.164 46.5936 53.1026 50.5421 53.888C54.4905 54.6734 58.5831 54.2703 62.3024 52.7297C66.0218 51.1891 69.2007 48.5802 71.4373 45.2329C73.6739 41.8856 74.8677 37.9503 74.8677 33.9245C74.8686 31.2512 74.3427 28.604 73.3201 26.134C72.2975 23.6641 70.7982 21.4199 68.908 19.5296C67.0177 17.6393 64.7734 16.14 62.3035 15.1174C59.8336 14.0948 57.1863 13.5689 54.5131 13.5698ZM54.5131 47.4942C51.8292 47.4942 49.2056 46.6984 46.9741 45.2073C44.7426 43.7163 43.0033 41.597 41.9762 39.1174C40.9492 36.6379 40.6804 33.9094 41.204 31.2772C41.7276 28.6449 43.02 26.227 44.9178 24.3292C46.8155 22.4314 49.2334 21.139 51.8657 20.6154C54.498 20.0919 57.2264 20.3606 59.706 21.3876C62.1855 22.4147 64.3048 24.154 65.7959 26.3855C67.287 28.6171 68.0828 31.2406 68.0828 33.9245C68.0783 37.522 66.6472 40.9709 64.1034 43.5148C61.5595 46.0587 58.1106 47.4898 54.5131 47.4942Z" fill="#6DDA9B"/>
<path d="M54.5132 37.4337C56.193 37.4337 57.5547 35.9673 57.5547 34.1583C57.5547 32.3493 56.193 30.8828 54.5132 30.8828C52.8334 30.8828 51.4717 32.3493 51.4717 34.1583C51.4717 35.9673 52.8334 37.4337 54.5132 37.4337Z" fill="#6DDA9B"/>
</svg>
